<svg xmlns="http://www.w3.org/2000/svg" xmlns:xlink="http://www.w3.org/1999/xlink" width="640" zoomAndPan="magnify" viewBox="0 0 480 179.999997" height="240" preserveAspectRatio="xMidYMid meet" version="1.0"><defs><g/><clipPath id="c436a27c46"><path d="M 1 45 L 181 45 L 181 139 L 1 139 Z M 1 45 " clip-rule="nonzero"/></clipPath><clipPath id="1398617882"><path d="M -10.78125 67.5 L 168.902344 11.355469 L 200.441406 112.292969 L 20.757812 168.4375 Z M -10.78125 67.5 " clip-rule="nonzero"/></clipPath><clipPath id="fc352dea91"><path d="M -10.78125 67.5 L 168.902344 11.355469 L 200.441406 112.292969 L 20.757812 168.4375 Z M -10.78125 67.5 " clip-rule="nonzero"/></clipPath></defs><g clip-path="url(#c436a27c46)"><g clip-path="url(#1398617882)"><g clip-path="url(#fc352dea91)"><path fill="#2463eb" d="M 166.960938 46.085938 C 172.464844 46.515625 179.0625 44.453125 180.746094 49.839844 C 184.71875 62.554688 134.507812 86.566406 132.550781 87.175781 L 127.035156 130.515625 C 126.722656 133.832031 125.242188 135.101562 123.359375 135.957031 L 117.882812 138.203125 L 109.632812 111.792969 L 95.570312 105.445312 C 94.347656 105.828125 87.628906 109.261719 72.960938 113.847656 C 55.839844 119.195312 50.964844 119.917969 49.742188 120.300781 L 50.386719 129.226562 C 50.597656 130.777344 46.667969 132.804688 45.628906 132.054688 L 33.152344 123.066406 C 31.445312 123.597656 26.890625 124.492188 26.429688 123.019531 C 25.820312 121.070312 26.324219 120.101562 27.148438 119.308594 L 3.132812 107.75 C 1.535156 106.910156 5.171875 103.089844 9.691406 103.816406 L 30.464844 106.722656 L 24.808594 92.917969 L 28.742188 90.894531 C 30.132812 90.1875 34.003906 91.398438 35.28125 92.0625 L 52.285156 101.789062 L 72.996094 90.75 L 59.4375 83.453125 L 1.785156 68.171875 L 4.941406 63.695312 C 4.941406 63.695312 5.617188 62.410156 9.039062 61.339844 L 116.289062 68.640625 L 144.371094 53.691406 C 145.511719 53.0625 149.734375 48.523438 155.847656 46.613281 C 162.457031 44.546875 162.839844 45.765625 166.964844 46.085938 " fill-opacity="1" fill-rule="nonzero"/></g></g></g><g fill="#2463eb" fill-opacity="1"><g transform="translate(179.85603, 83.949993)"><g><path d="M 6.890625 0.265625 C 5.671875 0.265625 4.492188 0.101562 3.359375 -0.21875 C 2.222656 -0.550781 1.304688 -0.984375 0.609375 -1.515625 L 1.828125 -4.203125 C 2.484375 -3.710938 3.265625 -3.320312 4.171875 -3.03125 C 5.085938 -2.738281 6 -2.59375 6.90625 -2.59375 C 7.914062 -2.59375 8.660156 -2.742188 9.140625 -3.046875 C 9.628906 -3.347656 9.875 -3.75 9.875 -4.25 C 9.875 -4.613281 9.726562 -4.914062 9.4375 -5.15625 C 9.15625 -5.394531 8.789062 -5.585938 8.34375 -5.734375 C 7.894531 -5.890625 7.289062 -6.050781 6.53125 -6.21875 C 5.363281 -6.5 4.40625 -6.78125 3.65625 -7.0625 C 2.90625 -7.34375 2.257812 -7.789062 1.71875 -8.40625 C 1.1875 -9.019531 0.921875 -9.84375 0.921875 -10.875 C 0.921875 -11.757812 1.160156 -12.566406 1.640625 -13.296875 C 2.128906 -14.023438 2.859375 -14.597656 3.828125 -15.015625 C 4.804688 -15.441406 6 -15.65625 7.40625 -15.65625 C 8.394531 -15.65625 9.359375 -15.535156 10.296875 -15.296875 C 11.234375 -15.066406 12.054688 -14.734375 12.765625 -14.296875 L 11.65625 -11.59375 C 10.238281 -12.394531 8.816406 -12.796875 7.390625 -12.796875 C 6.390625 -12.796875 5.648438 -12.632812 5.171875 -12.3125 C 4.703125 -12 4.46875 -11.578125 4.46875 -11.046875 C 4.46875 -10.515625 4.738281 -10.117188 5.28125 -9.859375 C 5.832031 -9.609375 6.675781 -9.359375 7.8125 -9.109375 C 8.976562 -8.828125 9.9375 -8.546875 10.6875 -8.265625 C 11.4375 -7.992188 12.078125 -7.554688 12.609375 -6.953125 C 13.148438 -6.347656 13.421875 -5.535156 13.421875 -4.515625 C 13.421875 -3.628906 13.175781 -2.820312 12.6875 -2.09375 C 12.195312 -1.375 11.457031 -0.800781 10.46875 -0.375 C 9.488281 0.0507812 8.296875 0.265625 6.890625 0.265625 Z M 6.890625 0.265625 "/></g></g></g><g fill="#2463eb" fill-opacity="1"><g transform="translate(197.299537, 83.949993)"><g><path d="M 7.4375 -6.046875 L 5.375 -3.890625 L 5.375 0 L 1.828125 0 L 1.828125 -15.40625 L 5.375 -15.40625 L 5.375 -8.203125 L 12.1875 -15.40625 L 16.140625 -15.40625 L 9.765625 -8.53125 L 16.515625 0 L 12.359375 0 Z M 7.4375 -6.046875 "/></g></g></g><g fill="#2463eb" fill-opacity="1"><g transform="translate(216.986647, 83.949993)"><g><path d="M 9.21875 -5.453125 L 9.21875 0 L 5.65625 0 L 5.65625 -5.5 L -0.3125 -15.40625 L 3.46875 -15.40625 L 7.59375 -8.5625 L 11.703125 -15.40625 L 15.203125 -15.40625 Z M 9.21875 -5.453125 "/></g></g></g><g fill="#2463eb" fill-opacity="1"><g transform="translate(235.266007, 83.949993)"><g/></g></g><g fill="#2463eb" fill-opacity="1"><g transform="translate(244.900902, 83.949993)"><g><path d="M 1.828125 -15.40625 L 5.390625 -15.40625 L 5.390625 0 L 1.828125 0 Z M 1.828125 -15.40625 "/></g></g></g><g fill="#2463eb" fill-opacity="1"><g transform="translate(255.525619, 83.949993)"><g><path d="M 15.953125 -15.40625 L 15.953125 0 L 13.03125 0 L 5.34375 -9.34375 L 5.34375 0 L 1.828125 0 L 1.828125 -15.40625 L 4.78125 -15.40625 L 12.4375 -6.046875 L 12.4375 -15.40625 Z M 15.953125 -15.40625 "/></g></g></g><g fill="#2463eb" fill-opacity="1"><g transform="translate(276.70846, 83.949993)"><g><path d="M 5.015625 -12.5 L 0.09375 -12.5 L 0.09375 -15.40625 L 13.515625 -15.40625 L 13.515625 -12.5 L 8.578125 -12.5 L 8.578125 0 L 5.015625 0 Z M 5.015625 -12.5 "/></g></g></g><g fill="#2463eb" fill-opacity="1"><g transform="translate(293.712045, 83.949993)"><g><path d="M 13.75 -2.859375 L 13.75 0 L 1.828125 0 L 1.828125 -15.40625 L 13.46875 -15.40625 L 13.46875 -12.546875 L 5.375 -12.546875 L 5.375 -9.203125 L 12.515625 -9.203125 L 12.515625 -6.421875 L 5.375 -6.421875 L 5.375 -2.859375 Z M 13.75 -2.859375 "/></g></g></g><g fill="#2463eb" fill-opacity="1"><g transform="translate(311.881416, 83.949993)"><g><path d="M 11.640625 0 L 8.671875 -4.296875 L 5.390625 -4.296875 L 5.390625 0 L 1.828125 0 L 1.828125 -15.40625 L 8.484375 -15.40625 C 9.847656 -15.40625 11.03125 -15.175781 12.03125 -14.71875 C 13.039062 -14.257812 13.816406 -13.613281 14.359375 -12.78125 C 14.910156 -11.945312 15.1875 -10.957031 15.1875 -9.8125 C 15.1875 -8.664062 14.910156 -7.675781 14.359375 -6.84375 C 13.804688 -6.019531 13.023438 -5.390625 12.015625 -4.953125 L 15.46875 0 Z M 11.578125 -9.8125 C 11.578125 -10.675781 11.296875 -11.335938 10.734375 -11.796875 C 10.179688 -12.265625 9.367188 -12.5 8.296875 -12.5 L 5.390625 -12.5 L 5.390625 -7.125 L 8.296875 -7.125 C 9.367188 -7.125 10.179688 -7.359375 10.734375 -7.828125 C 11.296875 -8.296875 11.578125 -8.957031 11.578125 -9.8125 Z M 11.578125 -9.8125 "/></g></g></g><g fill="#2463eb" fill-opacity="1"><g transform="translate(331.458537, 83.949993)"><g><path d="M 15.953125 -15.40625 L 15.953125 0 L 13.03125 0 L 5.34375 -9.34375 L 5.34375 0 L 1.828125 0 L 1.828125 -15.40625 L 4.78125 -15.40625 L 12.4375 -6.046875 L 12.4375 -15.40625 Z M 15.953125 -15.40625 "/></g></g></g><g fill="#2463eb" fill-opacity="1"><g transform="translate(352.641378, 83.949993)"><g><path d="M 11.96875 -3.296875 L 4.8125 -3.296875 L 3.453125 0 L -0.203125 0 L 6.671875 -15.40625 L 10.1875 -15.40625 L 17.078125 0 L 13.328125 0 Z M 10.84375 -6 L 8.40625 -11.90625 L 5.96875 -6 Z M 10.84375 -6 "/></g></g></g><g fill="#2463eb" fill-opacity="1"><g transform="translate(372.900384, 83.949993)"><g><path d="M 5.015625 -12.5 L 0.09375 -12.5 L 0.09375 -15.40625 L 13.515625 -15.40625 L 13.515625 -12.5 L 8.578125 -12.5 L 8.578125 0 L 5.015625 0 Z M 5.015625 -12.5 "/></g></g></g><g fill="#2463eb" fill-opacity="1"><g transform="translate(389.903969, 83.949993)"><g><path d="M 1.828125 -15.40625 L 5.390625 -15.40625 L 5.390625 0 L 1.828125 0 Z M 1.828125 -15.40625 "/></g></g></g><g fill="#2463eb" fill-opacity="1"><g transform="translate(400.528686, 83.949993)"><g><path d="M 9.28125 0.265625 C 7.6875 0.265625 6.242188 -0.078125 4.953125 -0.765625 C 3.671875 -1.453125 2.664062 -2.398438 1.9375 -3.609375 C 1.21875 -4.828125 0.859375 -6.191406 0.859375 -7.703125 C 0.859375 -9.210938 1.21875 -10.570312 1.9375 -11.78125 C 2.664062 -12.988281 3.671875 -13.9375 4.953125 -14.625 C 6.242188 -15.3125 7.6875 -15.65625 9.28125 -15.65625 C 10.882812 -15.65625 12.320312 -15.3125 13.59375 -14.625 C 14.875 -13.9375 15.878906 -12.988281 16.609375 -11.78125 C 17.335938 -10.570312 17.703125 -9.210938 17.703125 -7.703125 C 17.703125 -6.191406 17.335938 -4.828125 16.609375 -3.609375 C 15.878906 -2.398438 14.875 -1.453125 13.59375 -0.765625 C 12.320312 -0.078125 10.882812 0.265625 9.28125 0.265625 Z M 9.28125 -2.765625 C 10.1875 -2.765625 11.003906 -2.972656 11.734375 -3.390625 C 12.472656 -3.816406 13.050781 -4.398438 13.46875 -5.140625 C 13.894531 -5.890625 14.109375 -6.742188 14.109375 -7.703125 C 14.109375 -8.648438 13.894531 -9.5 13.46875 -10.25 C 13.050781 -11 12.472656 -11.582031 11.734375 -12 C 11.003906 -12.414062 10.1875 -12.625 9.28125 -12.625 C 8.375 -12.625 7.550781 -12.414062 6.8125 -12 C 6.082031 -11.582031 5.507812 -11 5.09375 -10.25 C 4.675781 -9.5 4.46875 -8.648438 4.46875 -7.703125 C 4.46875 -6.742188 4.675781 -5.890625 5.09375 -5.140625 C 5.507812 -4.398438 6.082031 -3.816406 6.8125 -3.390625 C 7.550781 -2.972656 8.375 -2.765625 9.28125 -2.765625 Z M 9.28125 -2.765625 "/></g></g></g><g fill="#2463eb" fill-opacity="1"><g transform="translate(422.503401, 83.949993)"><g><path d="M 15.953125 -15.40625 L 15.953125 0 L 13.03125 0 L 5.34375 -9.34375 L 5.34375 0 L 1.828125 0 L 1.828125 -15.40625 L 4.78125 -15.40625 L 12.4375 -6.046875 L 12.4375 -15.40625 Z M 15.953125 -15.40625 "/></g></g></g><g fill="#2463eb" fill-opacity="1"><g transform="translate(443.68623, 83.949993)"><g><path d="M 11.96875 -3.296875 L 4.8125 -3.296875 L 3.453125 0 L -0.203125 0 L 6.671875 -15.40625 L 10.1875 -15.40625 L 17.078125 0 L 13.328125 0 Z M 10.84375 -6 L 8.40625 -11.90625 L 5.96875 -6 Z M 10.84375 -6 "/></g></g></g><g fill="#2463eb" fill-opacity="1"><g transform="translate(463.945247, 83.949993)"><g><path d="M 1.828125 -15.40625 L 5.390625 -15.40625 L 5.390625 -2.90625 L 13.109375 -2.90625 L 13.109375 0 L 1.828125 0 Z M 1.828125 -15.40625 "/></g></g></g><g fill="#2463eb" fill-opacity="1"><g transform="translate(260.609228, 104.149995)"><g><path d="M 4 -10.171875 L 0.0625 -10.171875 L 0.0625 -11.203125 L 9.125 -11.203125 L 9.125 -10.171875 L 5.1875 -10.171875 L 5.1875 0 L 4 0 Z M 4 -10.171875 "/></g></g></g><g fill="#2463eb" fill-opacity="1"><g transform="translate(277.567005, 104.149995)"><g><path d="M 9.46875 0 L 6.90625 -3.59375 C 6.625 -3.5625 6.328125 -3.546875 6.015625 -3.546875 L 3.015625 -3.546875 L 3.015625 0 L 1.828125 0 L 1.828125 -11.203125 L 6.015625 -11.203125 C 7.441406 -11.203125 8.5625 -10.859375 9.375 -10.171875 C 10.1875 -9.492188 10.59375 -8.554688 10.59375 -7.359375 C 10.59375 -6.484375 10.367188 -5.742188 9.921875 -5.140625 C 9.484375 -4.535156 8.851562 -4.101562 8.03125 -3.84375 L 10.765625 0 Z M 5.984375 -4.5625 C 7.085938 -4.5625 7.929688 -4.804688 8.515625 -5.296875 C 9.109375 -5.785156 9.40625 -6.472656 9.40625 -7.359375 C 9.40625 -8.265625 9.109375 -8.957031 8.515625 -9.4375 C 7.929688 -9.925781 7.085938 -10.171875 5.984375 -10.171875 L 3.015625 -10.171875 L 3.015625 -4.5625 Z M 5.984375 -4.5625 "/></g></g></g><g fill="#2463eb" fill-opacity="1"><g transform="translate(296.90822, 104.149995)"><g><path d="M 8.84375 -2.984375 L 2.609375 -2.984375 L 1.265625 0 L 0.03125 0 L 5.15625 -11.203125 L 6.3125 -11.203125 L 11.4375 0 L 10.1875 0 Z M 8.421875 -3.953125 L 5.734375 -9.96875 L 3.046875 -3.953125 Z M 8.421875 -3.953125 "/></g></g></g><g fill="#2463eb" fill-opacity="1"><g transform="translate(316.153456, 104.149995)"><g><path d="M 11.140625 -11.203125 L 6.171875 0 L 5.015625 0 L 0.046875 -11.203125 L 1.328125 -11.203125 L 5.609375 -1.46875 L 9.9375 -11.203125 Z M 11.140625 -11.203125 "/></g></g></g><g fill="#2463eb" fill-opacity="1"><g transform="translate(335.094754, 104.149995)"><g><path d="M 9.75 -1.03125 L 9.75 0 L 1.828125 0 L 1.828125 -11.203125 L 9.5 -11.203125 L 9.5 -10.171875 L 3.015625 -10.171875 L 3.015625 -6.1875 L 8.796875 -6.1875 L 8.796875 -5.1875 L 3.015625 -5.1875 L 3.015625 -1.03125 Z M 9.75 -1.03125 "/></g></g></g><g fill="#2463eb" fill-opacity="1"><g transform="translate(353.572166, 104.149995)"><g><path d="M 1.828125 -11.203125 L 3.015625 -11.203125 L 3.015625 -1.03125 L 9.28125 -1.03125 L 9.28125 0 L 1.828125 0 Z M 1.828125 -11.203125 "/></g></g></g><g fill="#2463eb" fill-opacity="1"><g transform="translate(370.769889, 104.149995)"><g><path d="M 4.90625 0.09375 C 4.070312 0.09375 3.273438 -0.0351562 2.515625 -0.296875 C 1.753906 -0.566406 1.164062 -0.921875 0.75 -1.359375 L 1.21875 -2.265625 C 1.625 -1.859375 2.160156 -1.53125 2.828125 -1.28125 C 3.503906 -1.03125 4.195312 -0.90625 4.90625 -0.90625 C 5.914062 -0.90625 6.671875 -1.085938 7.171875 -1.453125 C 7.671875 -1.828125 7.921875 -2.304688 7.921875 -2.890625 C 7.921875 -3.335938 7.785156 -3.695312 7.515625 -3.96875 C 7.242188 -4.238281 6.910156 -4.441406 6.515625 -4.578125 C 6.117188 -4.722656 5.566406 -4.882812 4.859375 -5.0625 C 4.015625 -5.269531 3.34375 -5.472656 2.84375 -5.671875 C 2.34375 -5.867188 1.914062 -6.171875 1.5625 -6.578125 C 1.207031 -6.984375 1.03125 -7.53125 1.03125 -8.21875 C 1.03125 -8.789062 1.175781 -9.304688 1.46875 -9.765625 C 1.769531 -10.234375 2.226562 -10.601562 2.84375 -10.875 C 3.46875 -11.15625 4.238281 -11.296875 5.15625 -11.296875 C 5.789062 -11.296875 6.414062 -11.207031 7.03125 -11.03125 C 7.644531 -10.851562 8.175781 -10.609375 8.625 -10.296875 L 8.21875 -9.359375 C 7.75 -9.671875 7.25 -9.898438 6.71875 -10.046875 C 6.1875 -10.203125 5.664062 -10.28125 5.15625 -10.28125 C 4.175781 -10.28125 3.4375 -10.09375 2.9375 -9.71875 C 2.4375 -9.34375 2.1875 -8.851562 2.1875 -8.25 C 2.1875 -7.800781 2.320312 -7.441406 2.59375 -7.171875 C 2.875 -6.898438 3.21875 -6.691406 3.625 -6.546875 C 4.03125 -6.410156 4.582031 -6.253906 5.28125 -6.078125 C 6.101562 -5.878906 6.765625 -5.679688 7.265625 -5.484375 C 7.773438 -5.285156 8.207031 -4.984375 8.5625 -4.578125 C 8.914062 -4.179688 9.09375 -3.640625 9.09375 -2.953125 C 9.09375 -2.390625 8.9375 -1.875 8.625 -1.40625 C 8.320312 -0.945312 7.851562 -0.582031 7.21875 -0.3125 C 6.59375 -0.0390625 5.820312 0.09375 4.90625 0.09375 Z M 4.90625 0.09375 "/></g></g></g></svg>