<svg xmlns="http://www.w3.org/2000/svg" xmlns:xlink="http://www.w3.org/1999/xlink" width="640" zoomAndPan="magnify" viewBox="0 0 480 269.999989" height="360" preserveAspectRatio="xMidYMid meet" version="1.0"><defs><g/><clipPath id="55cddf2bf7"><path d="M 10 97 L 161 97 L 161 176 L 10 176 Z M 10 97 " clip-rule="nonzero"/></clipPath><clipPath id="ff7255418a"><path d="M 0 116.1875 L 150.332031 69.214844 L 176.726562 153.6875 L 26.394531 200.660156 Z M 0 116.1875 " clip-rule="nonzero"/></clipPath><clipPath id="71f05c32b7"><path d="M 0 116.1875 L 150.332031 69.214844 L 176.726562 153.6875 L 26.394531 200.660156 Z M 0 116.1875 " clip-rule="nonzero"/></clipPath></defs><g clip-path="url(#55cddf2bf7)"><g clip-path="url(#ff7255418a)"><g clip-path="url(#71f05c32b7)"><path fill="#2463eb" d="M 148.617188 98.285156 C 153.214844 98.640625 158.734375 96.917969 160.144531 101.421875 C 163.464844 112.050781 121.480469 132.128906 119.84375 132.640625 L 115.230469 168.878906 C 114.972656 171.648438 113.734375 172.714844 112.160156 173.425781 L 107.582031 175.304688 L 100.679688 153.222656 L 88.925781 147.914062 C 87.902344 148.234375 82.285156 151.105469 70.019531 154.9375 C 55.703125 159.414062 51.628906 160.015625 50.605469 160.335938 L 51.144531 167.800781 C 51.320312 169.09375 48.035156 170.792969 47.167969 170.164062 L 36.738281 162.648438 C 35.308594 163.09375 31.5 163.839844 31.113281 162.609375 C 30.605469 160.976562 31.027344 160.171875 31.714844 159.507812 L 11.636719 149.839844 C 10.296875 149.140625 13.339844 145.945312 17.117188 146.554688 L 34.488281 148.984375 L 29.757812 137.441406 L 33.046875 135.75 C 34.210938 135.15625 37.449219 136.167969 38.515625 136.726562 L 52.730469 144.855469 L 70.046875 135.628906 L 58.710938 129.527344 L 10.507812 116.75 L 13.148438 113.007812 C 13.148438 113.007812 13.710938 111.933594 16.574219 111.039062 L 106.246094 117.144531 L 129.726562 104.644531 C 130.683594 104.117188 134.214844 100.320312 139.324219 98.722656 C 144.851562 96.996094 145.167969 98.015625 148.617188 98.285156 " fill-opacity="1" fill-rule="nonzero"/></g></g></g><g fill="#2463eb" fill-opacity="1"><g transform="translate(174.840523, 128.728365)"><g><path d="M 6.578125 0.25 C 5.410156 0.25 4.285156 0.09375 3.203125 -0.21875 C 2.117188 -0.53125 1.25 -0.941406 0.59375 -1.453125 L 1.75 -4.015625 C 2.375 -3.546875 3.117188 -3.171875 3.984375 -2.890625 C 4.859375 -2.617188 5.726562 -2.484375 6.59375 -2.484375 C 7.5625 -2.484375 8.273438 -2.625 8.734375 -2.90625 C 9.191406 -3.195312 9.421875 -3.578125 9.421875 -4.046875 C 9.421875 -4.398438 9.285156 -4.691406 9.015625 -4.921875 C 8.742188 -5.148438 8.394531 -5.332031 7.96875 -5.46875 C 7.539062 -5.613281 6.960938 -5.769531 6.234375 -5.9375 C 5.117188 -6.207031 4.203125 -6.472656 3.484375 -6.734375 C 2.773438 -7.003906 2.160156 -7.429688 1.640625 -8.015625 C 1.128906 -8.609375 0.875 -9.394531 0.875 -10.375 C 0.875 -11.226562 1.101562 -12 1.5625 -12.6875 C 2.03125 -13.382812 2.726562 -13.9375 3.65625 -14.34375 C 4.59375 -14.75 5.734375 -14.953125 7.078125 -14.953125 C 8.015625 -14.953125 8.929688 -14.835938 9.828125 -14.609375 C 10.722656 -14.390625 11.507812 -14.070312 12.1875 -13.65625 L 11.125 -11.0625 C 9.769531 -11.832031 8.414062 -12.21875 7.0625 -12.21875 C 6.101562 -12.21875 5.394531 -12.0625 4.9375 -11.75 C 4.488281 -11.445312 4.265625 -11.046875 4.265625 -10.546875 C 4.265625 -10.035156 4.523438 -9.65625 5.046875 -9.40625 C 5.578125 -9.164062 6.378906 -8.925781 7.453125 -8.6875 C 8.578125 -8.425781 9.492188 -8.160156 10.203125 -7.890625 C 10.921875 -7.628906 11.535156 -7.210938 12.046875 -6.640625 C 12.554688 -6.066406 12.8125 -5.289062 12.8125 -4.3125 C 12.8125 -3.46875 12.578125 -2.695312 12.109375 -2 C 11.640625 -1.3125 10.9375 -0.765625 10 -0.359375 C 9.0625 0.046875 7.921875 0.25 6.578125 0.25 Z M 6.578125 0.25 "/></g></g></g><g fill="#2463eb" fill-opacity="1"><g transform="translate(191.493589, 128.728365)"><g><path d="M 7.09375 -5.78125 L 5.125 -3.71875 L 5.125 0 L 1.75 0 L 1.75 -14.703125 L 5.125 -14.703125 L 5.125 -7.828125 L 11.640625 -14.703125 L 15.40625 -14.703125 L 9.328125 -8.140625 L 15.765625 0 L 11.796875 0 Z M 7.09375 -5.78125 "/></g></g></g><g fill="#2463eb" fill-opacity="1"><g transform="translate(210.288669, 128.728365)"><g><path d="M 8.796875 -5.203125 L 8.796875 0 L 5.390625 0 L 5.390625 -5.25 L -0.296875 -14.703125 L 3.3125 -14.703125 L 7.25 -8.171875 L 11.171875 -14.703125 L 14.515625 -14.703125 Z M 8.796875 -5.203125 "/></g></g></g><g fill="#2463eb" fill-opacity="1"><g transform="translate(227.739746, 128.728365)"><g/></g></g><g fill="#2463eb" fill-opacity="1"><g transform="translate(236.937774, 128.728365)"><g><path d="M 1.75 -14.703125 L 5.140625 -14.703125 L 5.140625 0 L 1.75 0 Z M 1.75 -14.703125 "/></g></g></g><g fill="#2463eb" fill-opacity="1"><g transform="translate(247.080809, 128.728365)"><g><path d="M 15.21875 -14.703125 L 15.21875 0 L 12.4375 0 L 5.109375 -8.921875 L 5.109375 0 L 1.75 0 L 1.75 -14.703125 L 4.5625 -14.703125 L 11.859375 -5.78125 L 11.859375 -14.703125 Z M 15.21875 -14.703125 "/></g></g></g><g fill="#2463eb" fill-opacity="1"><g transform="translate(267.303891, 128.728365)"><g><path d="M 4.78125 -11.921875 L 0.078125 -11.921875 L 0.078125 -14.703125 L 12.890625 -14.703125 L 12.890625 -11.921875 L 8.1875 -11.921875 L 8.1875 0 L 4.78125 0 Z M 4.78125 -11.921875 "/></g></g></g><g fill="#2463eb" fill-opacity="1"><g transform="translate(283.536956, 128.728365)"><g><path d="M 13.125 -2.734375 L 13.125 0 L 1.75 0 L 1.75 -14.703125 L 12.859375 -14.703125 L 12.859375 -11.96875 L 5.125 -11.96875 L 5.125 -8.78125 L 11.953125 -8.78125 L 11.953125 -6.125 L 5.125 -6.125 L 5.125 -2.734375 Z M 13.125 -2.734375 "/></g></g></g><g fill="#2463eb" fill-opacity="1"><g transform="translate(300.883016, 128.728365)"><g><path d="M 11.109375 0 L 8.28125 -4.09375 L 5.140625 -4.09375 L 5.140625 0 L 1.75 0 L 1.75 -14.703125 L 8.109375 -14.703125 C 9.410156 -14.703125 10.539062 -14.484375 11.5 -14.046875 C 12.457031 -13.609375 13.191406 -12.988281 13.703125 -12.1875 C 14.222656 -11.394531 14.484375 -10.453125 14.484375 -9.359375 C 14.484375 -8.273438 14.222656 -7.335938 13.703125 -6.546875 C 13.179688 -5.753906 12.4375 -5.144531 11.46875 -4.71875 L 14.765625 0 Z M 11.046875 -9.359375 C 11.046875 -10.191406 10.78125 -10.828125 10.25 -11.265625 C 9.71875 -11.703125 8.941406 -11.921875 7.921875 -11.921875 L 5.140625 -11.921875 L 5.140625 -6.796875 L 7.921875 -6.796875 C 8.941406 -6.796875 9.71875 -7.019531 10.25 -7.46875 C 10.78125 -7.914062 11.046875 -8.546875 11.046875 -9.359375 Z M 11.046875 -9.359375 "/></g></g></g><g fill="#2463eb" fill-opacity="1"><g transform="translate(319.573082, 128.728365)"><g><path d="M 15.21875 -14.703125 L 15.21875 0 L 12.4375 0 L 5.109375 -8.921875 L 5.109375 0 L 1.75 0 L 1.75 -14.703125 L 4.5625 -14.703125 L 11.859375 -5.78125 L 11.859375 -14.703125 Z M 15.21875 -14.703125 "/></g></g></g><g fill="#2463eb" fill-opacity="1"><g transform="translate(339.796164, 128.728365)"><g><path d="M 11.421875 -3.15625 L 4.59375 -3.15625 L 3.296875 0 L -0.1875 0 L 6.359375 -14.703125 L 9.71875 -14.703125 L 16.296875 0 L 12.71875 0 Z M 10.359375 -5.734375 L 8.015625 -11.359375 L 5.6875 -5.734375 Z M 10.359375 -5.734375 "/></g></g></g><g fill="#2463eb" fill-opacity="1"><g transform="translate(359.137238, 128.728365)"><g><path d="M 4.78125 -11.921875 L 0.078125 -11.921875 L 0.078125 -14.703125 L 12.890625 -14.703125 L 12.890625 -11.921875 L 8.1875 -11.921875 L 8.1875 0 L 4.78125 0 Z M 4.78125 -11.921875 "/></g></g></g><g fill="#2463eb" fill-opacity="1"><g transform="translate(375.370314, 128.728365)"><g><path d="M 1.75 -14.703125 L 5.140625 -14.703125 L 5.140625 0 L 1.75 0 Z M 1.75 -14.703125 "/></g></g></g><g fill="#2463eb" fill-opacity="1"><g transform="translate(385.51335, 128.728365)"><g><path d="M 8.859375 0.25 C 7.335938 0.25 5.960938 -0.078125 4.734375 -0.734375 C 3.503906 -1.390625 2.539062 -2.296875 1.84375 -3.453125 C 1.15625 -4.609375 0.8125 -5.90625 0.8125 -7.34375 C 0.8125 -8.789062 1.15625 -10.09375 1.84375 -11.25 C 2.539062 -12.40625 3.503906 -13.3125 4.734375 -13.96875 C 5.960938 -14.625 7.335938 -14.953125 8.859375 -14.953125 C 10.390625 -14.953125 11.765625 -14.625 12.984375 -13.96875 C 14.203125 -13.3125 15.160156 -12.40625 15.859375 -11.25 C 16.554688 -10.09375 16.90625 -8.789062 16.90625 -7.34375 C 16.90625 -5.90625 16.554688 -4.609375 15.859375 -3.453125 C 15.160156 -2.296875 14.203125 -1.390625 12.984375 -0.734375 C 11.765625 -0.078125 10.390625 0.25 8.859375 0.25 Z M 8.859375 -2.640625 C 9.722656 -2.640625 10.503906 -2.835938 11.203125 -3.234375 C 11.910156 -3.640625 12.460938 -4.195312 12.859375 -4.90625 C 13.265625 -5.625 13.46875 -6.4375 13.46875 -7.34375 C 13.46875 -8.257812 13.265625 -9.070312 12.859375 -9.78125 C 12.460938 -10.5 11.910156 -11.054688 11.203125 -11.453125 C 10.503906 -11.847656 9.722656 -12.046875 8.859375 -12.046875 C 7.992188 -12.046875 7.207031 -11.847656 6.5 -11.453125 C 5.800781 -11.054688 5.253906 -10.5 4.859375 -9.78125 C 4.460938 -9.070312 4.265625 -8.257812 4.265625 -7.34375 C 4.265625 -6.4375 4.460938 -5.625 4.859375 -4.90625 C 5.253906 -4.195312 5.800781 -3.640625 6.5 -3.234375 C 7.207031 -2.835938 7.992188 -2.640625 8.859375 -2.640625 Z M 8.859375 -2.640625 "/></g></g></g><g fill="#2463eb" fill-opacity="1"><g transform="translate(406.492428, 128.728365)"><g><path d="M 15.21875 -14.703125 L 15.21875 0 L 12.4375 0 L 5.109375 -8.921875 L 5.109375 0 L 1.75 0 L 1.75 -14.703125 L 4.5625 -14.703125 L 11.859375 -5.78125 L 11.859375 -14.703125 Z M 15.21875 -14.703125 "/></g></g></g><g fill="#2463eb" fill-opacity="1"><g transform="translate(426.71551, 128.728365)"><g><path d="M 11.421875 -3.15625 L 4.59375 -3.15625 L 3.296875 0 L -0.1875 0 L 6.359375 -14.703125 L 9.71875 -14.703125 L 16.296875 0 L 12.71875 0 Z M 10.359375 -5.734375 L 8.015625 -11.359375 L 5.6875 -5.734375 Z M 10.359375 -5.734375 "/></g></g></g><g fill="#2463eb" fill-opacity="1"><g transform="translate(446.056595, 128.728365)"><g><path d="M 1.75 -14.703125 L 5.140625 -14.703125 L 5.140625 -2.765625 L 12.515625 -2.765625 L 12.515625 0 L 1.75 0 Z M 1.75 -14.703125 "/></g></g></g><g fill="#2463eb" fill-opacity="1"><g transform="translate(259.220995, 155.469669)"><g><path d="M 4.53125 -11.53125 L 0.078125 -11.53125 L 0.078125 -12.703125 L 10.34375 -12.703125 L 10.34375 -11.53125 L 5.875 -11.53125 L 5.875 0 L 4.53125 0 Z M 4.53125 -11.53125 "/></g></g></g><g fill="#2463eb" fill-opacity="1"><g transform="translate(278.441417, 155.469669)"><g><path d="M 10.734375 0 L 7.84375 -4.078125 C 7.507812 -4.046875 7.171875 -4.03125 6.828125 -4.03125 L 3.40625 -4.03125 L 3.40625 0 L 2.0625 0 L 2.0625 -12.703125 L 6.828125 -12.703125 C 8.441406 -12.703125 9.707031 -12.3125 10.625 -11.53125 C 11.550781 -10.757812 12.015625 -9.695312 12.015625 -8.34375 C 12.015625 -7.351562 11.757812 -6.515625 11.25 -5.828125 C 10.75 -5.148438 10.035156 -4.660156 9.109375 -4.359375 L 12.203125 0 Z M 6.78125 -5.171875 C 8.039062 -5.171875 9.003906 -5.445312 9.671875 -6 C 10.335938 -6.5625 10.671875 -7.34375 10.671875 -8.34375 C 10.671875 -9.375 10.335938 -10.160156 9.671875 -10.703125 C 9.003906 -11.253906 8.039062 -11.53125 6.78125 -11.53125 L 3.40625 -11.53125 L 3.40625 -5.171875 Z M 6.78125 -5.171875 "/></g></g></g><g fill="#2463eb" fill-opacity="1"><g transform="translate(300.363034, 155.469669)"><g><path d="M 10.03125 -3.390625 L 2.953125 -3.390625 L 1.4375 0 L 0.03125 0 L 5.84375 -12.703125 L 7.171875 -12.703125 L 12.96875 0 L 11.5625 0 Z M 9.546875 -4.484375 L 6.5 -11.296875 L 3.453125 -4.484375 Z M 9.546875 -4.484375 "/></g></g></g><g fill="#2463eb" fill-opacity="1"><g transform="translate(322.175889, 155.469669)"><g><path d="M 12.625 -12.703125 L 7 0 L 5.671875 0 L 0.046875 -12.703125 L 1.5 -12.703125 L 6.375 -1.671875 L 11.265625 -12.703125 Z M 12.625 -12.703125 "/></g></g></g><g fill="#2463eb" fill-opacity="1"><g transform="translate(343.644283, 155.469669)"><g><path d="M 11.046875 -1.15625 L 11.046875 0 L 2.0625 0 L 2.0625 -12.703125 L 10.78125 -12.703125 L 10.78125 -11.53125 L 3.40625 -11.53125 L 3.40625 -7.015625 L 9.984375 -7.015625 L 9.984375 -5.875 L 3.40625 -5.875 L 3.40625 -1.15625 Z M 11.046875 -1.15625 "/></g></g></g><g fill="#2463eb" fill-opacity="1"><g transform="translate(364.586946, 155.469669)"><g><path d="M 2.0625 -12.703125 L 3.40625 -12.703125 L 3.40625 -1.15625 L 10.515625 -1.15625 L 10.515625 0 L 2.0625 0 Z M 2.0625 -12.703125 "/></g></g></g><g fill="#2463eb" fill-opacity="1"><g transform="translate(384.079299, 155.469669)"><g><path d="M 5.5625 0.109375 C 4.625 0.109375 3.722656 -0.0390625 2.859375 -0.34375 C 1.992188 -0.644531 1.328125 -1.046875 0.859375 -1.546875 L 1.375 -2.578125 C 1.832031 -2.117188 2.441406 -1.742188 3.203125 -1.453125 C 3.972656 -1.171875 4.757812 -1.03125 5.5625 -1.03125 C 6.707031 -1.03125 7.5625 -1.238281 8.125 -1.65625 C 8.695312 -2.070312 8.984375 -2.613281 8.984375 -3.28125 C 8.984375 -3.789062 8.828125 -4.195312 8.515625 -4.5 C 8.203125 -4.800781 7.820312 -5.03125 7.375 -5.1875 C 6.9375 -5.351562 6.316406 -5.535156 5.515625 -5.734375 C 4.554688 -5.972656 3.789062 -6.203125 3.21875 -6.421875 C 2.65625 -6.648438 2.171875 -6.992188 1.765625 -7.453125 C 1.359375 -7.910156 1.15625 -8.535156 1.15625 -9.328125 C 1.15625 -9.960938 1.320312 -10.539062 1.65625 -11.0625 C 2 -11.59375 2.519531 -12.015625 3.21875 -12.328125 C 3.925781 -12.648438 4.800781 -12.8125 5.84375 -12.8125 C 6.570312 -12.8125 7.28125 -12.707031 7.96875 -12.5 C 8.664062 -12.300781 9.269531 -12.03125 9.78125 -11.6875 L 9.328125 -10.609375 C 8.796875 -10.960938 8.226562 -11.226562 7.625 -11.40625 C 7.019531 -11.582031 6.425781 -11.671875 5.84375 -11.671875 C 4.726562 -11.671875 3.890625 -11.453125 3.328125 -11.015625 C 2.765625 -10.585938 2.484375 -10.035156 2.484375 -9.359375 C 2.484375 -8.847656 2.632812 -8.4375 2.9375 -8.125 C 3.25 -7.820312 3.640625 -7.585938 4.109375 -7.421875 C 4.578125 -7.265625 5.203125 -7.085938 5.984375 -6.890625 C 6.921875 -6.660156 7.675781 -6.429688 8.25 -6.203125 C 8.820312 -5.984375 9.304688 -5.644531 9.703125 -5.1875 C 10.097656 -4.738281 10.296875 -4.128906 10.296875 -3.359375 C 10.296875 -2.710938 10.125 -2.125 9.78125 -1.59375 C 9.4375 -1.070312 8.90625 -0.65625 8.1875 -0.34375 C 7.476562 -0.0390625 6.601562 0.109375 5.5625 0.109375 Z M 5.5625 0.109375 "/></g></g></g></svg>