<svg xmlns="http://www.w3.org/2000/svg" xmlns:xlink="http://www.w3.org/1999/xlink" width="500" zoomAndPan="magnify" viewBox="0 0 375 374.999991" height="500" preserveAspectRatio="xMidYMid meet" version="1.0"><defs><clipPath id="30e21676d6"><path d="M 22 95 L 341 95 L 341 261 L 22 261 Z M 22 95 " clip-rule="nonzero"/></clipPath><clipPath id="e9f60af55d"><path d="M 0 134.929688 L 318.5625 35.390625 L 374.707031 215.074219 L 56.144531 314.613281 Z M 0 134.929688 " clip-rule="nonzero"/></clipPath><clipPath id="ccb1e57c1f"><path d="M 0 134.929688 L 318.5625 35.390625 L 374.707031 215.074219 L 56.144531 314.613281 Z M 0 134.929688 " clip-rule="nonzero"/></clipPath></defs><g clip-path="url(#30e21676d6)"><g clip-path="url(#e9f60af55d)"><g clip-path="url(#ccb1e57c1f)"><path fill="#2463eb" d="M 315.738281 96.890625 C 325.511719 97.652344 337.238281 93.988281 340.226562 103.554688 C 347.285156 126.140625 258.09375 168.792969 254.613281 169.882812 L 244.8125 246.867188 C 244.261719 252.757812 241.632812 255.015625 238.285156 256.53125 L 228.558594 260.527344 L 213.898438 213.609375 L 188.921875 202.332031 C 186.746094 203.011719 174.816406 209.113281 148.757812 217.253906 C 118.347656 226.757812 109.683594 228.042969 107.511719 228.722656 L 108.65625 244.574219 C 109.03125 247.328125 102.050781 250.933594 100.210938 249.601562 L 78.046875 233.632812 C 75.011719 234.582031 66.921875 236.167969 66.105469 233.550781 C 65.019531 230.085938 65.914062 228.371094 67.382812 226.960938 L 24.722656 206.425781 C 21.878906 204.933594 28.34375 198.148438 36.367188 199.441406 L 73.273438 204.601562 L 63.222656 180.082031 L 70.207031 176.484375 C 72.679688 175.230469 79.558594 177.378906 81.828125 178.5625 L 112.03125 195.835938 L 148.820312 176.226562 L 124.734375 163.265625 L 22.320312 136.125 L 27.929688 128.167969 C 27.929688 128.167969 29.132812 125.886719 35.210938 123.988281 L 225.722656 136.957031 L 275.609375 110.398438 C 277.640625 109.28125 285.140625 101.21875 296 97.824219 C 307.738281 94.15625 308.414062 96.324219 315.742188 96.890625 " fill-opacity="1" fill-rule="nonzero"/></g></g></g></svg>